<svg xmlns="http://www.w3.org/2000/svg" viewBox="0 0 24 24">
  <path d="M20.447 20.452h-3.554v-5.569c0-1.327-.027-3.037-1.852-3.037-1.853 0-2.136 1.445-2.136 2.939v5.667H9.35V9h3.414v1.561h.049c.476-.9 1.637-1.852 3.368-1.852 3.599 0 4.266 2.37 4.266 5.456v6.287zM5.337 7.433a2.062 2.062 0 1 1 0-4.124 2.062 2.062 0 0 1 0 4.124zM6.875 20.452H3.796V9h3.079v11.452zM22.225 0H1.771C.792 0 0 .771 0 1.729v20.542C0 23.229.792 24 1.771 24h20.451C23.2 24 24 23.229 24 22.271V1.729C24 .771 23.2 0 22.225 0z"/>
</svg>
